<?xml version="1.0" ?><svg data-name="Layer 7" height="24" id="Layer_7" viewBox="0 0 24 24" width="24" xmlns="http://www.w3.org/2000/svg"><title/><polygon points="22 5.471 20.586 4.056 16.883 7.76 14.961 5.838 13.547 7.253 16.883 10.6 22 5.471" style="fill:#4eba94"/><path d="M12.31738,17.17871l-1.41406-1.41406L11.584,15.084a2.85215,2.85215,0,0,0,0-4.02832L8.8623,8.334A2.84845,2.84845,0,0,0,4.834,12.3623L3.41992,13.77637a4.84824,4.84824,0,0,1,6.85645-6.85645L12.998,9.6416a4.85319,4.85319,0,0,1,0,6.85645Z" style="fill:#738394"/><path d="M13.65234,21.998a4.833,4.833,0,0,1-3.42871-1.418L7.502,17.8584a4.85319,4.85319,0,0,1,0-6.85645l.68066-.68066,1.41406,1.41406L8.916,12.416a2.85215,2.85215,0,0,0,0,4.02832L11.6377,19.166A2.84845,2.84845,0,1,0,15.666,15.1377l1.41406-1.41406A4.84619,4.84619,0,0,1,13.65234,21.998Z" style="fill:#b3c1c9"/></svg>